<?xml version="1.0" encoding="UTF-8"?>
<svg xmlns="http://www.w3.org/2000/svg" xmlns:xlink="http://www.w3.org/1999/xlink" width="504pt" height="300.999987pt" viewBox="0 0 504 359.999987" version="1.2">
<defs>
<clipPath id="clip1">
  <path d="M 9.167969 0 L 495 0 L 495 360 L 9.167969 360 Z M 9.167969 0 "/>
</clipPath>
<clipPath id="clip2">
  <path d="M 9.167969 0 L 495 0 L 495 28 L 9.167969 28 Z M 9.167969 0 "/>
</clipPath>
<clipPath id="clip3">
  <path d="M 9.167969 55 L 495 55 L 495 84 L 9.167969 84 Z M 9.167969 55 "/>
</clipPath>
<clipPath id="clip4">
  <path d="M 9.167969 110 L 495 110 L 495 139 L 9.167969 139 Z M 9.167969 110 "/>
</clipPath>
<clipPath id="clip5">
  <path d="M 9.167969 166 L 495 166 L 495 194 L 9.167969 194 Z M 9.167969 166 "/>
</clipPath>
<clipPath id="clip6">
  <path d="M 9.167969 0 L 245 0 L 245 194 L 9.167969 194 Z M 9.167969 0 "/>
</clipPath>
<clipPath id="clip7">
  <path d="M 9.167969 221 L 495 221 L 495 250 L 9.167969 250 Z M 9.167969 221 "/>
</clipPath>
<clipPath id="clip8">
  <path d="M 9.167969 276 L 495 276 L 495 305 L 9.167969 305 Z M 9.167969 276 "/>
</clipPath>
<clipPath id="clip9">
  <path d="M 9.167969 332 L 495 332 L 495 360 L 9.167969 360 Z M 9.167969 332 "/>
</clipPath>
</defs>
<g id="surface1">
<g clip-path="url(#clip1)" clip-rule="nonzero">
<path style=" stroke:none;fill-rule:nonzero;fill:rgb(100%,100%,100%);fill-opacity:1;" d="M 494.777344 360.054688 L 9.984375 360.054688 L 9.984375 0.0390625 L 494.777344 0.0390625 L 494.777344 360.054688 "/>
</g>
<g clip-path="url(#clip2)" clip-rule="nonzero">
<path style=" stroke:none;fill-rule:nonzero;fill:rgb(63.529968%,10.5896%,14.118958%);fill-opacity:1;" d="M 494.777344 27.726562 L 9.984375 27.726562 L 9.984375 0.0390625 L 494.777344 0.0390625 L 494.777344 27.726562 "/>
</g>
<g clip-path="url(#clip3)" clip-rule="nonzero">
<path style=" stroke:none;fill-rule:nonzero;fill:rgb(63.529968%,10.5896%,14.118958%);fill-opacity:1;" d="M 494.777344 83.113281 L 9.984375 83.113281 L 9.984375 55.429688 L 494.777344 55.429688 L 494.777344 83.113281 "/>
</g>
<g clip-path="url(#clip4)" clip-rule="nonzero">
<path style=" stroke:none;fill-rule:nonzero;fill:rgb(63.529968%,10.5896%,14.118958%);fill-opacity:1;" d="M 494.777344 138.503906 L 9.984375 138.503906 L 9.984375 110.816406 L 494.777344 110.816406 L 494.777344 138.503906 "/>
</g>
<g clip-path="url(#clip5)" clip-rule="nonzero">
<path style=" stroke:none;fill-rule:nonzero;fill:rgb(63.529968%,10.5896%,14.118958%);fill-opacity:1;" d="M 494.777344 193.890625 L 9.984375 193.890625 L 9.984375 166.203125 L 494.777344 166.203125 L 494.777344 193.890625 "/>
</g>
<g clip-path="url(#clip6)" clip-rule="nonzero">
<path style=" stroke:none;fill-rule:nonzero;fill:rgb(8.628845%,16.079712%,24.708557%);fill-opacity:1;" d="M 9.984375 0.0390625 L 9.984375 193.890625 L 244.753906 193.890625 L 244.753906 0.0390625 L 9.984375 0.0390625 "/>
</g>
<g clip-path="url(#clip7)" clip-rule="nonzero">
<path style=" stroke:none;fill-rule:nonzero;fill:rgb(63.529968%,10.5896%,14.118958%);fill-opacity:1;" d="M 494.777344 249.28125 L 9.984375 249.28125 L 9.984375 221.585938 L 494.777344 221.585938 L 494.777344 249.28125 "/>
</g>
<g clip-path="url(#clip8)" clip-rule="nonzero">
<path style=" stroke:none;fill-rule:nonzero;fill:rgb(63.529968%,10.5896%,14.118958%);fill-opacity:1;" d="M 494.777344 304.667969 L 9.984375 304.667969 L 9.984375 276.972656 L 494.777344 276.972656 L 494.777344 304.667969 "/>
</g>
<g clip-path="url(#clip9)" clip-rule="nonzero">
<path style=" stroke:none;fill-rule:nonzero;fill:rgb(63.529968%,10.5896%,14.118958%);fill-opacity:1;" d="M 494.777344 360.054688 L 9.984375 360.054688 L 9.984375 332.359375 L 494.777344 332.359375 L 494.777344 360.054688 "/>
</g>
<path style=" stroke:none;fill-rule:nonzero;fill:rgb(100%,100%,100%);fill-opacity:1;" d="M 33.898438 13.371094 L 40.117188 14.128906 L 35.730469 18.597656 L 36.929688 24.734375 L 31.324219 21.949219 L 25.851562 24.988281 L 26.769531 18.800781 L 22.183594 14.542969 L 28.359375 13.5 L 30.996094 7.832031 L 33.898438 13.371094 "/>
<path style=" stroke:none;fill-rule:nonzero;fill:rgb(100%,100%,100%);fill-opacity:1;" d="M 73.082031 13.371094 L 79.300781 14.128906 L 74.914062 18.597656 L 76.117188 24.734375 L 70.507812 21.949219 L 65.039062 24.988281 L 65.953125 18.800781 L 61.371094 14.542969 L 67.542969 13.5 L 70.179688 7.832031 L 73.082031 13.371094 "/>
<path style=" stroke:none;fill-rule:nonzero;fill:rgb(100%,100%,100%);fill-opacity:1;" d="M 111.292969 13.371094 L 117.503906 14.128906 L 113.125 18.597656 L 114.324219 24.734375 L 108.71875 21.949219 L 103.242188 24.988281 L 104.15625 18.800781 L 99.574219 14.542969 L 105.753906 13.5 L 108.390625 7.832031 L 111.292969 13.371094 "/>
<path style=" stroke:none;fill-rule:nonzero;fill:rgb(100%,100%,100%);fill-opacity:1;" d="M 149.5 13.371094 L 155.714844 14.128906 L 151.335938 18.597656 L 152.535156 24.734375 L 146.929688 21.949219 L 141.453125 24.988281 L 142.367188 18.800781 L 137.785156 14.542969 L 143.957031 13.5 L 146.601562 7.832031 L 149.5 13.371094 "/>
<path style=" stroke:none;fill-rule:nonzero;fill:rgb(100%,100%,100%);fill-opacity:1;" d="M 187.710938 13.371094 L 193.925781 14.128906 L 189.542969 18.597656 L 190.746094 24.734375 L 185.136719 21.949219 L 179.660156 24.988281 L 180.578125 18.800781 L 175.992188 14.542969 L 182.167969 13.5 L 184.808594 7.832031 L 187.710938 13.371094 "/>
<path style=" stroke:none;fill-rule:nonzero;fill:rgb(100%,100%,100%);fill-opacity:1;" d="M 225.917969 13.371094 L 232.132812 14.128906 L 227.753906 18.597656 L 228.953125 24.734375 L 223.347656 21.949219 L 217.871094 24.988281 L 218.785156 18.800781 L 214.203125 14.542969 L 220.375 13.5 L 223.019531 7.832031 L 225.917969 13.371094 "/>
<path style=" stroke:none;fill-rule:nonzero;fill:rgb(100%,100%,100%);fill-opacity:1;" d="M 53.980469 33.945312 L 60.191406 34.703125 L 55.8125 39.171875 L 57.011719 45.308594 L 51.402344 42.527344 L 45.929688 45.5625 L 46.847656 39.375 L 42.261719 35.113281 L 48.4375 34.070312 L 51.078125 28.40625 L 53.980469 33.945312 "/>
<path style=" stroke:none;fill-rule:nonzero;fill:rgb(100%,100%,100%);fill-opacity:1;" d="M 92.183594 33.945312 L 98.402344 34.703125 L 94.023438 39.171875 L 95.222656 45.308594 L 89.613281 42.527344 L 84.140625 45.5625 L 85.054688 39.375 L 80.472656 35.113281 L 86.644531 34.070312 L 89.289062 28.40625 L 92.183594 33.945312 "/>
<path style=" stroke:none;fill-rule:nonzero;fill:rgb(100%,100%,100%);fill-opacity:1;" d="M 130.394531 33.945312 L 136.613281 34.703125 L 132.226562 39.171875 L 133.433594 45.308594 L 127.820312 42.527344 L 122.347656 45.5625 L 123.265625 39.375 L 118.679688 35.113281 L 124.855469 34.070312 L 127.492188 28.40625 L 130.394531 33.945312 "/>
<path style=" stroke:none;fill-rule:nonzero;fill:rgb(100%,100%,100%);fill-opacity:1;" d="M 168.601562 33.945312 L 174.820312 34.703125 L 170.4375 39.171875 L 171.640625 45.308594 L 166.03125 42.527344 L 160.558594 45.5625 L 161.472656 39.375 L 156.890625 35.113281 L 163.0625 34.070312 L 165.703125 28.40625 L 168.601562 33.945312 "/>
<path style=" stroke:none;fill-rule:nonzero;fill:rgb(100%,100%,100%);fill-opacity:1;" d="M 206.8125 33.945312 L 213.03125 34.703125 L 208.648438 39.171875 L 209.851562 45.308594 L 204.242188 42.527344 L 198.769531 45.5625 L 199.683594 39.375 L 195.101562 35.113281 L 201.273438 34.070312 L 203.914062 28.40625 L 206.8125 33.945312 "/>
<path style=" stroke:none;fill-rule:nonzero;fill:rgb(100%,100%,100%);fill-opacity:1;" d="M 33.898438 53.382812 L 40.117188 54.136719 L 35.730469 58.601562 L 36.929688 64.738281 L 31.324219 61.960938 L 25.851562 64.992188 L 26.769531 58.8125 L 22.183594 54.546875 L 28.359375 53.507812 L 30.996094 47.839844 L 33.898438 53.382812 "/>
<path style=" stroke:none;fill-rule:nonzero;fill:rgb(100%,100%,100%);fill-opacity:1;" d="M 73.082031 53.382812 L 79.300781 54.136719 L 74.914062 58.601562 L 76.117188 64.738281 L 70.507812 61.960938 L 65.039062 64.992188 L 65.953125 58.8125 L 61.371094 54.546875 L 67.542969 53.507812 L 70.179688 47.839844 L 73.082031 53.382812 "/>
<path style=" stroke:none;fill-rule:nonzero;fill:rgb(100%,100%,100%);fill-opacity:1;" d="M 111.292969 53.382812 L 117.503906 54.136719 L 113.125 58.601562 L 114.324219 64.738281 L 108.71875 61.960938 L 103.242188 64.992188 L 104.15625 58.8125 L 99.574219 54.546875 L 105.753906 53.507812 L 108.390625 47.839844 L 111.292969 53.382812 "/>
<path style=" stroke:none;fill-rule:nonzero;fill:rgb(100%,100%,100%);fill-opacity:1;" d="M 149.5 53.382812 L 155.714844 54.136719 L 151.335938 58.601562 L 152.535156 64.738281 L 146.929688 61.960938 L 141.453125 64.992188 L 142.367188 58.8125 L 137.785156 54.546875 L 143.957031 53.507812 L 146.601562 47.839844 L 149.5 53.382812 "/>
<path style=" stroke:none;fill-rule:nonzero;fill:rgb(100%,100%,100%);fill-opacity:1;" d="M 187.710938 53.382812 L 193.925781 54.136719 L 189.542969 58.601562 L 190.746094 64.738281 L 185.136719 61.960938 L 179.660156 64.992188 L 180.578125 58.8125 L 175.992188 54.546875 L 182.167969 53.507812 L 184.808594 47.839844 L 187.710938 53.382812 "/>
<path style=" stroke:none;fill-rule:nonzero;fill:rgb(100%,100%,100%);fill-opacity:1;" d="M 225.917969 53.382812 L 232.132812 54.136719 L 227.753906 58.601562 L 228.953125 64.738281 L 223.347656 61.960938 L 217.871094 64.992188 L 218.785156 58.8125 L 214.203125 54.546875 L 220.375 53.507812 L 223.019531 47.839844 L 225.917969 53.382812 "/>
<path style=" stroke:none;fill-rule:nonzero;fill:rgb(100%,100%,100%);fill-opacity:1;" d="M 53.980469 73.953125 L 60.191406 74.707031 L 55.8125 79.175781 L 57.011719 85.3125 L 51.402344 82.53125 L 45.929688 85.566406 L 46.847656 79.382812 L 42.261719 75.125 L 48.4375 74.082031 L 51.078125 68.410156 L 53.980469 73.953125 "/>
<path style=" stroke:none;fill-rule:nonzero;fill:rgb(100%,100%,100%);fill-opacity:1;" d="M 92.183594 73.953125 L 98.402344 74.707031 L 94.023438 79.175781 L 95.222656 85.3125 L 89.613281 82.53125 L 84.140625 85.566406 L 85.054688 79.382812 L 80.472656 75.125 L 86.644531 74.082031 L 89.289062 68.410156 L 92.183594 73.953125 "/>
<path style=" stroke:none;fill-rule:nonzero;fill:rgb(100%,100%,100%);fill-opacity:1;" d="M 130.394531 73.953125 L 136.613281 74.707031 L 132.226562 79.175781 L 133.433594 85.3125 L 127.820312 82.53125 L 122.347656 85.566406 L 123.265625 79.382812 L 118.679688 75.125 L 124.855469 74.082031 L 127.492188 68.410156 L 130.394531 73.953125 "/>
<path style=" stroke:none;fill-rule:nonzero;fill:rgb(100%,100%,100%);fill-opacity:1;" d="M 168.601562 73.953125 L 174.820312 74.707031 L 170.4375 79.175781 L 171.640625 85.3125 L 166.03125 82.53125 L 160.558594 85.566406 L 161.472656 79.382812 L 156.890625 75.125 L 163.0625 74.082031 L 165.703125 68.410156 L 168.601562 73.953125 "/>
<path style=" stroke:none;fill-rule:nonzero;fill:rgb(100%,100%,100%);fill-opacity:1;" d="M 206.8125 73.953125 L 213.03125 74.707031 L 208.648438 79.175781 L 209.851562 85.3125 L 204.242188 82.53125 L 198.769531 85.566406 L 199.683594 79.382812 L 195.101562 75.125 L 201.273438 74.082031 L 203.914062 68.410156 L 206.8125 73.953125 "/>
<path style=" stroke:none;fill-rule:nonzero;fill:rgb(100%,100%,100%);fill-opacity:1;" d="M 33.898438 93.386719 L 40.117188 94.140625 L 35.730469 98.609375 L 36.929688 104.746094 L 31.324219 101.964844 L 25.851562 105 L 26.769531 98.816406 L 22.183594 94.554688 L 28.359375 93.511719 L 30.996094 87.84375 L 33.898438 93.386719 "/>
<path style=" stroke:none;fill-rule:nonzero;fill:rgb(100%,100%,100%);fill-opacity:1;" d="M 73.082031 93.386719 L 79.300781 94.140625 L 74.914062 98.609375 L 76.117188 104.746094 L 70.507812 101.964844 L 65.039062 105 L 65.953125 98.816406 L 61.371094 94.554688 L 67.542969 93.511719 L 70.179688 87.84375 L 73.082031 93.386719 "/>
<path style=" stroke:none;fill-rule:nonzero;fill:rgb(100%,100%,100%);fill-opacity:1;" d="M 111.292969 93.386719 L 117.503906 94.140625 L 113.125 98.609375 L 114.324219 104.746094 L 108.71875 101.964844 L 103.242188 105 L 104.15625 98.816406 L 99.574219 94.554688 L 105.753906 93.511719 L 108.390625 87.84375 L 111.292969 93.386719 "/>
<path style=" stroke:none;fill-rule:nonzero;fill:rgb(100%,100%,100%);fill-opacity:1;" d="M 149.5 93.386719 L 155.714844 94.140625 L 151.335938 98.609375 L 152.535156 104.746094 L 146.929688 101.964844 L 141.453125 105 L 142.367188 98.816406 L 137.785156 94.554688 L 143.957031 93.511719 L 146.601562 87.84375 L 149.5 93.386719 "/>
<path style=" stroke:none;fill-rule:nonzero;fill:rgb(100%,100%,100%);fill-opacity:1;" d="M 187.710938 93.386719 L 193.925781 94.140625 L 189.542969 98.609375 L 190.746094 104.746094 L 185.136719 101.964844 L 179.660156 105 L 180.578125 98.816406 L 175.992188 94.554688 L 182.167969 93.511719 L 184.808594 87.84375 L 187.710938 93.386719 "/>
<path style=" stroke:none;fill-rule:nonzero;fill:rgb(100%,100%,100%);fill-opacity:1;" d="M 225.917969 93.386719 L 232.132812 94.140625 L 227.753906 98.609375 L 228.953125 104.746094 L 223.347656 101.964844 L 217.871094 105 L 218.785156 98.816406 L 214.203125 94.554688 L 220.375 93.511719 L 223.019531 87.84375 L 225.917969 93.386719 "/>
<path style=" stroke:none;fill-rule:nonzero;fill:rgb(100%,100%,100%);fill-opacity:1;" d="M 53.980469 113.957031 L 60.191406 114.714844 L 55.8125 119.179688 L 57.011719 125.316406 L 51.402344 122.535156 L 45.929688 125.570312 L 46.847656 119.386719 L 42.261719 115.128906 L 48.4375 114.085938 L 51.078125 108.414062 L 53.980469 113.957031 "/>
<path style=" stroke:none;fill-rule:nonzero;fill:rgb(100%,100%,100%);fill-opacity:1;" d="M 92.183594 113.957031 L 98.402344 114.714844 L 94.023438 119.179688 L 95.222656 125.316406 L 89.613281 122.535156 L 84.140625 125.570312 L 85.054688 119.386719 L 80.472656 115.128906 L 86.644531 114.085938 L 89.289062 108.414062 L 92.183594 113.957031 "/>
<path style=" stroke:none;fill-rule:nonzero;fill:rgb(100%,100%,100%);fill-opacity:1;" d="M 130.394531 113.957031 L 136.613281 114.714844 L 132.226562 119.179688 L 133.433594 125.316406 L 127.820312 122.535156 L 122.347656 125.570312 L 123.265625 119.386719 L 118.679688 115.128906 L 124.855469 114.085938 L 127.492188 108.414062 L 130.394531 113.957031 "/>
<path style=" stroke:none;fill-rule:nonzero;fill:rgb(100%,100%,100%);fill-opacity:1;" d="M 168.601562 113.957031 L 174.820312 114.714844 L 170.4375 119.179688 L 171.640625 125.316406 L 166.03125 122.535156 L 160.558594 125.570312 L 161.472656 119.386719 L 156.890625 115.128906 L 163.0625 114.085938 L 165.703125 108.414062 L 168.601562 113.957031 "/>
<path style=" stroke:none;fill-rule:nonzero;fill:rgb(100%,100%,100%);fill-opacity:1;" d="M 206.8125 113.957031 L 213.03125 114.714844 L 208.648438 119.179688 L 209.851562 125.316406 L 204.242188 122.535156 L 198.769531 125.570312 L 199.683594 119.386719 L 195.101562 115.128906 L 201.273438 114.085938 L 203.914062 108.414062 L 206.8125 113.957031 "/>
<path style=" stroke:none;fill-rule:nonzero;fill:rgb(100%,100%,100%);fill-opacity:1;" d="M 33.898438 133.390625 L 40.117188 134.148438 L 35.730469 138.613281 L 36.929688 144.75 L 31.324219 141.96875 L 25.851562 145.007812 L 26.769531 138.820312 L 22.183594 134.558594 L 28.359375 133.519531 L 30.996094 127.847656 L 33.898438 133.390625 "/>
<path style=" stroke:none;fill-rule:nonzero;fill:rgb(100%,100%,100%);fill-opacity:1;" d="M 73.082031 133.390625 L 79.300781 134.148438 L 74.914062 138.613281 L 76.117188 144.75 L 70.507812 141.96875 L 65.039062 145.007812 L 65.953125 138.820312 L 61.371094 134.558594 L 67.542969 133.519531 L 70.179688 127.847656 L 73.082031 133.390625 "/>
<path style=" stroke:none;fill-rule:nonzero;fill:rgb(100%,100%,100%);fill-opacity:1;" d="M 111.292969 133.390625 L 117.503906 134.148438 L 113.125 138.613281 L 114.324219 144.75 L 108.71875 141.96875 L 103.242188 145.007812 L 104.15625 138.820312 L 99.574219 134.558594 L 105.753906 133.519531 L 108.390625 127.847656 L 111.292969 133.390625 "/>
<path style=" stroke:none;fill-rule:nonzero;fill:rgb(100%,100%,100%);fill-opacity:1;" d="M 149.5 133.390625 L 155.714844 134.148438 L 151.335938 138.613281 L 152.535156 144.75 L 146.929688 141.96875 L 141.453125 145.007812 L 142.367188 138.820312 L 137.785156 134.558594 L 143.957031 133.519531 L 146.601562 127.847656 L 149.5 133.390625 "/>
<path style=" stroke:none;fill-rule:nonzero;fill:rgb(100%,100%,100%);fill-opacity:1;" d="M 187.710938 133.390625 L 193.925781 134.148438 L 189.542969 138.613281 L 190.746094 144.75 L 185.136719 141.96875 L 179.660156 145.007812 L 180.578125 138.820312 L 175.992188 134.558594 L 182.167969 133.519531 L 184.808594 127.847656 L 187.710938 133.390625 "/>
<path style=" stroke:none;fill-rule:nonzero;fill:rgb(100%,100%,100%);fill-opacity:1;" d="M 225.917969 133.390625 L 232.132812 134.148438 L 227.753906 138.613281 L 228.953125 144.75 L 223.347656 141.96875 L 217.871094 145.007812 L 218.785156 138.820312 L 214.203125 134.558594 L 220.375 133.519531 L 223.019531 127.847656 L 225.917969 133.390625 "/>
<path style=" stroke:none;fill-rule:nonzero;fill:rgb(100%,100%,100%);fill-opacity:1;" d="M 53.980469 153.964844 L 60.191406 154.722656 L 55.8125 159.183594 L 57.011719 165.320312 L 51.402344 162.542969 L 45.929688 165.582031 L 46.847656 159.394531 L 42.261719 155.132812 L 48.4375 154.089844 L 51.078125 148.421875 L 53.980469 153.964844 "/>
<path style=" stroke:none;fill-rule:nonzero;fill:rgb(100%,100%,100%);fill-opacity:1;" d="M 92.183594 153.964844 L 98.402344 154.722656 L 94.023438 159.183594 L 95.222656 165.320312 L 89.613281 162.542969 L 84.140625 165.582031 L 85.054688 159.394531 L 80.472656 155.132812 L 86.644531 154.089844 L 89.289062 148.421875 L 92.183594 153.964844 "/>
<path style=" stroke:none;fill-rule:nonzero;fill:rgb(100%,100%,100%);fill-opacity:1;" d="M 130.394531 153.964844 L 136.613281 154.722656 L 132.226562 159.183594 L 133.433594 165.320312 L 127.820312 162.542969 L 122.347656 165.582031 L 123.265625 159.394531 L 118.679688 155.132812 L 124.855469 154.089844 L 127.492188 148.421875 L 130.394531 153.964844 "/>
<path style=" stroke:none;fill-rule:nonzero;fill:rgb(100%,100%,100%);fill-opacity:1;" d="M 168.601562 153.964844 L 174.820312 154.722656 L 170.4375 159.183594 L 171.640625 165.320312 L 166.03125 162.542969 L 160.558594 165.582031 L 161.472656 159.394531 L 156.890625 155.132812 L 163.0625 154.089844 L 165.703125 148.421875 L 168.601562 153.964844 "/>
<path style=" stroke:none;fill-rule:nonzero;fill:rgb(100%,100%,100%);fill-opacity:1;" d="M 206.8125 153.964844 L 213.03125 154.722656 L 208.648438 159.183594 L 209.851562 165.320312 L 204.242188 162.542969 L 198.769531 165.582031 L 199.683594 159.394531 L 195.101562 155.132812 L 201.273438 154.089844 L 203.914062 148.421875 L 206.8125 153.964844 "/>
<path style=" stroke:none;fill-rule:nonzero;fill:rgb(100%,100%,100%);fill-opacity:1;" d="M 33.898438 173.394531 L 40.117188 174.152344 L 35.730469 178.621094 L 36.929688 184.757812 L 31.324219 181.972656 L 25.851562 185.011719 L 26.769531 178.824219 L 22.183594 174.566406 L 28.359375 173.523438 L 30.996094 167.855469 L 33.898438 173.394531 "/>
<path style=" stroke:none;fill-rule:nonzero;fill:rgb(100%,100%,100%);fill-opacity:1;" d="M 73.082031 173.394531 L 79.300781 174.152344 L 74.914062 178.621094 L 76.117188 184.757812 L 70.507812 181.972656 L 65.039062 185.011719 L 65.953125 178.824219 L 61.371094 174.566406 L 67.542969 173.523438 L 70.179688 167.855469 L 73.082031 173.394531 "/>
<path style=" stroke:none;fill-rule:nonzero;fill:rgb(100%,100%,100%);fill-opacity:1;" d="M 111.292969 173.394531 L 117.503906 174.152344 L 113.125 178.621094 L 114.324219 184.757812 L 108.71875 181.972656 L 103.242188 185.011719 L 104.15625 178.824219 L 99.574219 174.566406 L 105.753906 173.523438 L 108.390625 167.855469 L 111.292969 173.394531 "/>
<path style=" stroke:none;fill-rule:nonzero;fill:rgb(100%,100%,100%);fill-opacity:1;" d="M 149.5 173.394531 L 155.714844 174.152344 L 151.335938 178.621094 L 152.535156 184.757812 L 146.929688 181.972656 L 141.453125 185.011719 L 142.367188 178.824219 L 137.785156 174.566406 L 143.957031 173.523438 L 146.601562 167.855469 L 149.5 173.394531 "/>
<path style=" stroke:none;fill-rule:nonzero;fill:rgb(100%,100%,100%);fill-opacity:1;" d="M 187.710938 173.394531 L 193.925781 174.152344 L 189.542969 178.621094 L 190.746094 184.757812 L 185.136719 181.972656 L 179.660156 185.011719 L 180.578125 178.824219 L 175.992188 174.566406 L 182.167969 173.523438 L 184.808594 167.855469 L 187.710938 173.394531 "/>
<path style=" stroke:none;fill-rule:nonzero;fill:rgb(100%,100%,100%);fill-opacity:1;" d="M 225.917969 173.394531 L 232.132812 174.152344 L 227.753906 178.621094 L 228.953125 184.757812 L 223.347656 181.972656 L 217.871094 185.011719 L 218.785156 178.824219 L 214.203125 174.566406 L 220.375 173.523438 L 223.019531 167.855469 L 225.917969 173.394531 "/>
</g>
</svg>
